<?xml version="1.0" encoding="UTF-8" standalone="no"?>
<!-- Created with Inkscape (http://www.inkscape.org/) -->

<svg
   xmlns:dc="http://purl.org/dc/elements/1.1/"
   xmlns:cc="http://creativecommons.org/ns#"
   xmlns:rdf="http://www.w3.org/1999/02/22-rdf-syntax-ns#"
   xmlns:svg="http://www.w3.org/2000/svg"
   xmlns="http://www.w3.org/2000/svg"
   xmlns:sodipodi="http://sodipodi.sourceforge.net/DTD/sodipodi-0.dtd"
   xmlns:inkscape="http://www.inkscape.org/namespaces/inkscape"
   width="584"
   height="322"
   id="svg1952"
   sodipodi:version="0.32"
   inkscape:version="0.91 r13725"
   sodipodi:docname="sv-splash.svg"
   inkscape:export-filename="/home/cannam/code/sv-iconset/sv-splash.png"
   inkscape:export-xdpi="90"
   inkscape:export-ydpi="90"
   version="1.1">
  <defs
     id="defs1954" />
  <sodipodi:namedview
     id="base"
     pagecolor="#ffffff"
     bordercolor="#666666"
     borderopacity="1.0"
     inkscape:pageopacity="0.0"
     inkscape:pageshadow="2"
     inkscape:zoom="2.8284271"
     inkscape:cx="288.38759"
     inkscape:cy="170.62826"
     inkscape:current-layer="layer1"
     inkscape:document-units="px"
     showgrid="true"
     inkscape:window-width="2426"
     inkscape:window-height="1265"
     inkscape:window-x="13"
     inkscape:window-y="97"
     inkscape:window-maximized="0"
     fit-margin-top="0"
     fit-margin-left="0"
     fit-margin-right="0"
     fit-margin-bottom="0"
     inkscape:snap-bbox="true">
    <inkscape:grid
       type="xygrid"
       id="grid6046"
       originx="-26"
       originy="-103.00001" />
  </sodipodi:namedview>
  <metadata
     id="metadata1957">
    <rdf:RDF>
      <cc:Work
         rdf:about="">
        <dc:format>image/svg+xml</dc:format>
        <dc:type
           rdf:resource="http://purl.org/dc/dcmitype/StillImage" />
        <dc:title></dc:title>
      </cc:Work>
    </rdf:RDF>
  </metadata>
  <g
     id="layer1"
     inkscape:label="Layer 1"
     inkscape:groupmode="layer"
     transform="translate(-26,-55)">
    <rect
       style="fill:#ffffff;fill-opacity:1;stroke:#000000;stroke-width:5.70384979;stroke-linejoin:miter;stroke-miterlimit:4;stroke-dasharray:none;stroke-opacity:1"
       id="rect3849"
       width="578.29614"
       height="316.29614"
       x="28.851925"
       y="57.851925" />
    <path
       inkscape:connector-curvature="0"
       style="fill:none;fill-rule:evenodd;stroke:#d45500;stroke-width:7.53300285px;stroke-linecap:butt;stroke-linejoin:miter;stroke-opacity:1"
       d="m 228.08326,185.35787 177.73895,0"
       id="path4036-8"
       sodipodi:nodetypes="cc" />
    <path
       style="fill:none;fill-rule:evenodd;stroke:#000000;stroke-width:10.21475124;stroke-linecap:butt;stroke-linejoin:miter;stroke-miterlimit:1.39999998;stroke-dasharray:none;stroke-dashoffset:0;stroke-opacity:1;marker-start:none;marker-mid:none;marker-end:none"
       d="m 230.22324,185.36149 c 21.35147,0 23.70274,-0.0889 23.70274,-0.0889 2.72055,1.47458 7.3672,-9.99457 10.69611,-23.58554 4.24636,-17.33645 7.04434,-34.41874 10.97672,16.81359 7.54151,99.85372 10.2207,40.80515 15.40785,4.97954 11.95179,-115.751142 13.16897,-72.23788 15.70059,-47.9004 9.7346,120.36111 9.31463,147.33484 14.51805,107.36073 3.867,-29.7067 15.37569,-154.929464 17.43936,-120.41046 14.35338,137.19844 16.91837,129.1049 21.32774,93.8454 5.05645,-29.54865 8.57895,-50.79293 10.86839,-59.90364 4.13921,-16.4718 9.00744,13.2684 9.00744,13.2684 5.13177,15.2598 8.62517,16.08942 8.62517,16.08942 l 19.30464,0.1155"
       id="path3783-4"
       sodipodi:nodetypes="ccscccsccsccc"
       inkscape:connector-curvature="0" />
    <rect
       style="fill:none;stroke:#d45500;stroke-width:15.06600571;stroke-linejoin:miter;stroke-miterlimit:4;stroke-dasharray:none;stroke-opacity:1"
       id="rect3775-0"
       width="188.36205"
       height="187.68933"
       x="224.90086"
       y="91.176857" />
    <g
       style="font-style:normal;font-variant:normal;font-weight:normal;font-stretch:normal;font-size:32px;line-height:125%;font-family:Korataki;text-align:start;writing-mode:lr-tb;text-anchor:start;fill:#000000;fill-opacity:1;stroke:none;stroke-width:1px;stroke-linecap:butt;stroke-linejoin:miter;stroke-opacity:1"
       id="text2049">
      <path
         d="m 258.132,322.832 q 0.672,1.216 1.696,1.216 l 1.728,0 q 0.448,0 0.864,-0.256 0.448,-0.288 0.8,-0.928 l 10.56,-18.464 7.2,0 -13.376,23.456 Q 266.356,330 263.7,330 l -6.048,0 q -1.536,0 -2.368,-0.544 -0.8,-0.544 -1.376,-1.632 L 240.5,304.4 l 7.232,0 10.4,18.432 z"
         style=""
         id="path4229" />
      <path
         d="m 282.6,304.4 6.24,0 0,25.6 -6.24,0 0,-25.6 z"
         style=""
         id="path4231" />
      <path
         d="m 328.004,304.4 0,5.952 -28.256,0 q -1.472,0 -1.472,0.928 l 0,1.984 q 0,0.928 1.472,0.928 l 21.376,0 q 7.68,0 7.68,6.112 l 0,3.488 q 0,6.208 -7.68,6.208 l -28.256,0 0,-5.952 28.256,0 q 1.44,0 1.44,-0.896 l 0,-2.08 q 0,-0.928 -1.44,-0.928 l -21.376,0 q -7.712,0 -7.712,-5.472 l 0,-4.032 q 0,-6.24 7.712,-6.24 l 28.256,0 z"
         style=""
         id="path4233" />
      <path
         d="m 362.151,324.048 q 1.44,0 1.44,-0.896 l 0,-18.752 6.272,0 0,19.392 q 0,6.208 -7.712,6.208 l -22.464,0 q -7.712,0 -7.712,-6.272 l 0,-19.328 6.24,0 0,18.688 q 0,0.96 1.472,0.96 l 22.464,0 z"
         style=""
         id="path4235" />
      <path
         d="m 401.566,324.976 -20.768,0 -2.816,5.024 -7.232,0 13.408,-23.424 q 0.576,-1.088 1.376,-1.632 0.832,-0.544 2.368,-0.544 l 6.464,0 q 2.656,0 3.904,2.144 l 13.376,23.456 -7.2,0 -2.88,-5.024 z m -17.728,-5.632 14.656,0 -4.448,-7.808 q -0.352,-0.64 -0.8,-0.896 -0.416,-0.288 -0.864,-0.288 l -2.464,0 q -1.024,0 -1.696,1.216 l -4.384,7.776 z"
         style=""
         id="path4237" />
      <path
         d="m 419.562,330 q -7.712,0 -7.712,-6.208 l 0,-19.392 6.272,0 0,18.432 q 0,1.216 1.44,1.216 l 27.904,0 0,5.952 -27.904,0 z"
         style=""
         id="path4239" />
      <path
         d="m 450.0375,304.4 6.24,0 0,25.6 -6.24,0 0,-25.6 z"
         style=""
         id="path4241" />
      <path
         d="m 495.4415,304.4 0,5.952 -28.256,0 q -1.472,0 -1.472,0.928 l 0,1.984 q 0,0.928 1.472,0.928 l 21.376,0 q 7.68,0 7.68,6.112 l 0,3.488 q 0,6.208 -7.68,6.208 l -28.256,0 0,-5.952 28.256,0 q 1.44,0 1.44,-0.896 l 0,-2.08 q 0,-0.928 -1.44,-0.928 l -21.376,0 q -7.712,0 -7.712,-5.472 l 0,-4.032 q 0,-6.24 7.712,-6.24 l 28.256,0 z"
         style=""
         id="path4243" />
      <path
         d="m 535.3805,324.048 0,5.952 -28.256,0 q -7.712,0 -7.712,-6.272 l 0,-13.088 q 0,-6.24 7.712,-6.24 l 28.16,0 0,5.952 -28.16,0 q -1.44,0 -1.44,1.248 l 0,2.592 29.408,0 0,5.952 -29.408,0 0,2.624 q 0,1.28 1.44,1.28 l 28.256,0 z"
         style=""
         id="path4245" />
      <path
         d="m 538.35,304.4 30.816,0 q 7.392,0 7.392,6.24 l 0,2.304 q 0,6.496 -7.392,6.496 l -2.144,0 10.592,10.56 -8.64,0 -9.952,-10.24 -14.432,0 0,10.24 -6.24,0 0,-25.6 z m 6.24,5.952 0,4.064 24.768,0 q 1.248,0 1.248,-1.024 l 0,-2.048 q 0,-0.992 -1.44,-0.992 l -24.576,0 z"
         style=""
         id="path4247" />
    </g>
    <g
       style="font-style:normal;font-variant:normal;font-weight:normal;font-stretch:normal;font-size:14px;line-height:100%;font-family:Korataki;text-align:start;writing-mode:lr-tb;text-anchor:start;fill:#000000;fill-opacity:1;stroke:none;stroke-width:1px;stroke-linecap:butt;stroke-linejoin:miter;stroke-opacity:1"
       id="text2053">
      <path
         d="m 85.214003,352 q -4.214,0 -4.214,-3.556 l 0,-4.074 q 0,-3.57 4.214,-3.57 l 8.652,0 q 4.214,0 4.214,3.57 l 0,4.074 q 0,3.556 -4.214,3.556 l -8.652,0 z m 0,-8.596 q -1.47,0 -1.47,0.966 l 0,4.074 q 0,0.952 1.47,0.952 l 5.432,0 -3.43,-3.318 3.64,0 3.22,3.318 q 1.26,-0.056 1.26,-0.952 l 0,-4.074 q 0,-0.966 -1.47,-0.966 l -8.652,0 z"
         style=""
         id="path4172" />
      <path
         d="m 112.68638,349.396 q 0.63,0 0.63,-0.392 l 0,-8.204 2.744,0 0,8.484 q 0,2.716 -3.374,2.716 l -9.828,0 q -3.374002,0 -3.374002,-2.744 l 0,-8.456 2.730002,0 0,8.176 q 0,0.42 0.644,0.42 l 9.828,0 z"
         style=""
         id="path4174" />
      <path
         d="m 133.18522,349.396 0,2.604 -12.362,0 q -3.374,0 -3.374,-2.744 l 0,-5.726 q 0,-2.73 3.374,-2.73 l 12.32,0 0,2.604 -12.32,0 q -0.63,0 -0.63,0.546 l 0,1.134 12.866,0 0,2.604 -12.866,0 0,1.148 q 0,0.56 0.63,0.56 l 12.362,0 z"
         style=""
         id="path4176" />
      <path
         d="m 150.22038,349.396 0,2.604 -12.362,0 q -3.374,0 -3.374,-2.744 l 0,-5.726 q 0,-2.73 3.374,-2.73 l 12.32,0 0,2.604 -12.32,0 q -0.63,0 -0.63,0.546 l 0,1.134 12.866,0 0,2.604 -12.866,0 0,1.148 q 0,0.56 0.63,0.56 l 12.362,0 z"
         style=""
         id="path4178" />
      <path
         d="m 155.91553,344.244 q -0.294,-0.35 -0.728,-0.588 -0.42,-0.252 -0.868,-0.252 l -0.14,0 0,8.596 -2.66,0 0,-11.2 2.8,0 q 1.12,0 1.876,0.364 0.77,0.364 1.47,1.148 l 5.418,6.244 q 0.294,0.336 0.714,0.588 0.42,0.252 0.868,0.252 l 0.14,0 0,-8.596 2.674,0 0,11.2 -2.814,0 q -1.162,0 -1.974,-0.378 -0.798,-0.378 -1.484,-1.204 l -5.292,-6.174 z"
         style=""
         id="path4180" />
      <path
         d="m 175.71875,340.8 2.73,0 q 0.672,0 1.19,0.112 0.532,0.112 0.952,0.378 0.42,0.252 0.756,0.658 0.35,0.406 0.644,0.994 l 3.276,6.454 0.896,0 3.248,-6.412 q 0.308,-0.602 0.658,-1.008 0.35,-0.42 0.77,-0.672 0.434,-0.266 0.938,-0.378 0.518,-0.126 1.134,-0.126 l 2.758,0 0,11.2 -2.604,0 0,-8.596 -0.14,0 q -0.28,0 -0.546,0.21 -0.252,0.196 -0.378,0.448 l -4.102,7.938 -4.382,0 -4.116,-7.938 q -0.126,-0.252 -0.392,-0.448 -0.266,-0.21 -0.546,-0.21 l -0.14,0 0,8.596 -2.604,0 0,-11.2 z"
         style=""
         id="path4182" />
      <path
         d="m 209.85622,349.802 -9.086,0 -1.232,2.198 -3.164,0 5.866,-10.248 q 0.252,-0.476 0.602,-0.714 0.364,-0.238 1.036,-0.238 l 2.828,0 q 1.162,0 1.708,0.938 l 5.852,10.262 -3.15,0 -1.26,-2.198 z m -7.756,-2.464 6.412,0 -1.946,-3.416 q -0.154,-0.28 -0.35,-0.392 -0.182,-0.126 -0.378,-0.126 l -1.078,0 q -0.448,0 -0.742,0.532 l -1.918,3.402 z"
         style=""
         id="path4184" />
      <path
         d="m 214.95703,340.8 13.482,0 q 3.234,0 3.234,2.73 l 0,1.008 q 0,2.842 -3.234,2.842 l -0.938,0 4.634,4.62 -3.78,0 -4.354,-4.48 -6.314,0 0,4.48 -2.73,0 0,-11.2 z m 2.73,2.604 0,1.778 10.836,0 q 0.546,0 0.546,-0.448 l 0,-0.896 q 0,-0.434 -0.63,-0.434 l -10.752,0 z"
         style=""
         id="path4186" />
      <path
         d="m 243.17163,340.8 3.15,0 -5.95,7.406 0,3.794 -2.744,0 0,-3.738 -6.062,-7.462 3.164,0 4.186,5.334 4.256,-5.334 z"
         style=""
         id="path4188" />
      <path
         d="m 243.20313,350.236 2.744,0 0,1.764 -0.994,1.806 -1.036,0 0.322,-1.806 -1.036,0 0,-1.764 z"
         style=""
         id="path4190" />
      <path
         d="m 267.39732,349.396 q 0.63,0 0.63,-0.392 l 0,-8.204 2.744,0 0,8.484 q 0,2.716 -3.374,2.716 l -9.828,0 q -3.374,0 -3.374,-2.744 l 0,-8.456 2.73,0 0,8.176 q 0,0.42 0.644,0.42 l 9.828,0 z"
         style=""
         id="path4192" />
      <path
         d="m 276.55616,344.244 q -0.294,-0.35 -0.728,-0.588 -0.42,-0.252 -0.868,-0.252 l -0.14,0 0,8.596 -2.66,0 0,-11.2 2.8,0 q 1.12,0 1.876,0.364 0.77,0.364 1.47,1.148 l 5.418,6.244 q 0.294,0.336 0.714,0.588 0.42,0.252 0.868,0.252 l 0.14,0 0,-8.596 2.674,0 0,11.2 -2.814,0 q -1.162,0 -1.974,-0.378 -0.798,-0.378 -1.484,-1.204 l -5.292,-6.174 z"
         style=""
         id="path4194" />
      <path
         d="m 289.52344,340.8 2.73,0 0,11.2 -2.73,0 0,-11.2 z"
         style=""
         id="path4196" />
      <path
         d="m 300.69369,348.864 q 0.294,0.532 0.742,0.532 l 0.756,0 q 0.196,0 0.378,-0.112 0.196,-0.126 0.35,-0.406 l 4.62,-8.078 3.15,0 -5.852,10.262 q -0.546,0.938 -1.708,0.938 l -2.646,0 q -0.672,0 -1.036,-0.238 -0.35,-0.238 -0.602,-0.714 l -5.866,-10.248 3.164,0 4.55,8.064 z"
         style=""
         id="path4198" />
      <path
         d="m 326.25944,349.396 0,2.604 -12.362,0 q -3.374,0 -3.374,-2.744 l 0,-5.726 q 0,-2.73 3.374,-2.73 l 12.32,0 0,2.604 -12.32,0 q -0.63,0 -0.63,0.546 l 0,1.134 12.866,0 0,2.604 -12.866,0 0,1.148 q 0,0.56 0.63,0.56 l 12.362,0 z"
         style=""
         id="path4200" />
      <path
         d="m 327.5586,340.8 13.482,0 q 3.234,0 3.234,2.73 l 0,1.008 q 0,2.842 -3.234,2.842 l -0.938,0 4.634,4.62 -3.78,0 -4.354,-4.48 -6.314,0 0,4.48 -2.73,0 0,-11.2 z m 2.73,2.604 0,1.778 10.836,0 q 0.546,0 0.546,-0.448 l 0,-0.896 q 0,-0.434 -0.63,-0.434 l -10.752,0 z"
         style=""
         id="path4202" />
      <path
         d="m 361.14941,340.8 0,2.604 -12.362,0 q -0.644,0 -0.644,0.406 l 0,0.868 q 0,0.406 0.644,0.406 l 9.352,0 q 3.36,0 3.36,2.674 l 0,1.526 q 0,2.716 -3.36,2.716 l -12.362,0 0,-2.604 12.362,0 q 0.63,0 0.63,-0.392 l 0,-0.91 q 0,-0.406 -0.63,-0.406 l -9.352,0 q -3.374,0 -3.374,-2.394 l 0,-1.764 q 0,-2.73 3.374,-2.73 l 12.362,0 z"
         style=""
         id="path4204" />
      <path
         d="m 362.88672,340.8 2.73,0 0,11.2 -2.73,0 0,-11.2 z"
         style=""
         id="path4206" />
      <path
         d="m 367.04297,340.8 15.694,0 0,2.604 -6.426,0 0,8.596 -2.73,0 0,-8.596 -6.538,0 0,-2.604 z"
         style=""
         id="path4208" />
      <path
         d="m 395.03882,340.8 3.15,0 -5.95,7.406 0,3.794 -2.744,0 0,-3.738 -6.062,-7.462 3.164,0 4.186,5.334 4.256,-5.334 z"
         style=""
         id="path4210" />
      <path
         d="m 409.94838,352 q -4.214,0 -4.214,-3.556 l 0,-4.074 q 0,-3.57 4.214,-3.57 l 8.652,0 q 4.214,0 4.214,3.57 l 0,4.074 q 0,3.556 -4.214,3.556 l -8.652,0 z m 0,-8.596 q -1.47,0 -1.47,0.966 l 0,4.074 q 0,0.952 1.47,0.952 l 8.652,0 q 1.47,0 1.47,-0.952 l 0,-4.074 q 0,-0.966 -1.47,-0.966 l -8.652,0 z"
         style=""
         id="path4212" />
      <path
         d="m 424.21875,352 0,-8.47 q 0,-2.73 3.374,-2.73 l 12.18,0 0,2.604 -12.18,0 q -0.63,0 -0.63,0.546 l 0,1.274 12.726,0 0,2.604 -12.726,0 0,4.172 -2.744,0 z"
         style=""
         id="path4214" />
      <path
         d="m 451.19041,352 q -3.374,0 -3.374,-2.716 l 0,-8.484 2.744,0 0,8.064 q 0,0.532 0.63,0.532 l 12.208,0 0,2.604 -12.208,0 z"
         style=""
         id="path4216" />
      <path
         d="m 468.73744,352 q -4.214,0 -4.214,-3.556 l 0,-4.074 q 0,-3.57 4.214,-3.57 l 8.652,0 q 4.214,0 4.214,3.57 l 0,4.074 q 0,3.556 -4.214,3.556 l -8.652,0 z m 0,-8.596 q -1.47,0 -1.47,0.966 l 0,4.074 q 0,0.952 1.47,0.952 l 8.652,0 q 1.47,0 1.47,-0.952 l 0,-4.074 q 0,-0.966 -1.47,-0.966 l -8.652,0 z"
         style=""
         id="path4218" />
      <path
         d="m 487.40382,344.244 q -0.294,-0.35 -0.728,-0.588 -0.42,-0.252 -0.868,-0.252 l -0.14,0 0,8.596 -2.66,0 0,-11.2 2.8,0 q 1.12,0 1.876,0.364 0.77,0.364 1.47,1.148 l 5.418,6.244 q 0.294,0.336 0.714,0.588 0.42,0.252 0.868,0.252 l 0.14,0 0,-8.596 2.674,0 0,11.2 -2.814,0 q -1.162,0 -1.974,-0.378 -0.798,-0.378 -1.484,-1.204 l -5.292,-6.174 z"
         style=""
         id="path4220" />
      <path
         d="m 500.3711,340.8 13.09,0 q 4.214,0 4.214,3.57 l 0,4.074 q 0,3.556 -4.214,3.556 l -13.09,0 0,-11.2 z m 2.73,8.596 10.36,0 q 1.47,0 1.47,-0.952 l 0,-4.074 q 0,-0.966 -1.47,-0.966 l -10.36,0 0,5.992 z"
         style=""
         id="path4222" />
      <path
         d="m 523.28822,352 q -4.214,0 -4.214,-3.556 l 0,-4.074 q 0,-3.57 4.214,-3.57 l 8.652,0 q 4.214,0 4.214,3.57 l 0,4.074 q 0,3.556 -4.214,3.556 l -8.652,0 z m 0,-8.596 q -1.47,0 -1.47,0.966 l 0,4.074 q 0,0.952 1.47,0.952 l 8.652,0 q 1.47,0 1.47,-0.952 l 0,-4.074 q 0,-0.966 -1.47,-0.966 l -8.652,0 z"
         style=""
         id="path4224" />
      <path
         d="m 541.9546,344.244 q -0.294,-0.35 -0.728,-0.588 -0.42,-0.252 -0.868,-0.252 l -0.14,0 0,8.596 -2.66,0 0,-11.2 2.8,0 q 1.12,0 1.876,0.364 0.77,0.364 1.47,1.148 l 5.418,6.244 q 0.294,0.336 0.714,0.588 0.42,0.252 0.868,0.252 l 0.14,0 0,-8.596 2.674,0 0,11.2 -2.814,0 q -1.162,0 -1.974,-0.378 -0.798,-0.378 -1.484,-1.204 l -5.292,-6.174 z"
         style=""
         id="path4226" />
    </g>
    <g
       style="font-style:normal;font-variant:normal;font-weight:normal;font-stretch:normal;font-size:32px;line-height:125%;font-family:Korataki;text-align:start;writing-mode:lr-tb;text-anchor:start;fill:#000000;fill-opacity:1;stroke:none;stroke-width:1px;stroke-linecap:butt;stroke-linejoin:miter;stroke-opacity:1"
       id="text2049-6">
      <path
         d="m 94.597563,304.25049 0,5.952 -28.256,0 q -1.472,0 -1.472,0.928 l 0,1.984 q 0,0.928 1.472,0.928 l 21.376,0 q 7.68,0 7.68,6.112 l 0,3.488 q 0,6.208 -7.68,6.208 l -28.256,0 0,-5.952 28.256,0 q 1.44,0 1.44,-0.896 l 0,-2.08 q 0,-0.928 -1.44,-0.928 l -21.376,0 q -7.712,0 -7.712,-5.472 l 0,-4.032 q 0,-6.24 7.712,-6.24 l 28.256,0 z"
         style=""
         id="path4161" />
      <path
         d="m 108.20056,329.85049 q -9.631997,0 -9.631997,-8.128 l 0,-9.312 q 0,-8.16 9.631997,-8.16 l 19.776,0 q 9.632,0 9.632,8.16 l 0,9.312 q 0,8.128 -9.632,8.128 l -19.776,0 z m 0,-19.648 q -3.36,0 -3.36,2.208 l 0,9.312 q 0,2.176 3.36,2.176 l 19.776,0 q 3.36,0 3.36,-2.176 l 0,-9.312 q 0,-2.208 -3.36,-2.208 l -19.776,0 z"
         style=""
         id="path4163" />
      <path
         d="m 150.86656,312.12249 q -0.672,-0.8 -1.664,-1.344 -0.96,-0.576 -1.984,-0.576 l -0.32,0 0,19.648 -6.08,0 0,-25.6 6.4,0 q 2.56,0 4.288,0.832 1.76,0.832 3.36,2.624 l 12.384,14.272 q 0.672,0.768 1.632,1.344 0.96,0.576 1.984,0.576 l 0.32,0 0,-19.648 6.112,0 0,25.6 -6.432,0 q -2.656,0 -4.512,-0.864 -1.824,-0.864 -3.392,-2.752 l -12.096,-14.112 z"
         style=""
         id="path4165" />
      <path
         d="m 180.50606,304.25049 6.24,0 0,25.6 -6.24,0 0,-25.6 z"
         style=""
         id="path4167" />
      <path
         d="m 226.93406,323.89849 0,5.952 -29.216,0 q -7.712,0 -7.712,-6.272 l 0,-13.088 q 0,-6.24 7.712,-6.24 l 29.12,0 0,5.952 -29.12,0 q -1.44,0 -1.44,1.248 l 0,11.168 q 0,1.28 1.44,1.28 l 29.216,0 z"
         style=""
         id="path4169" />
    </g>
  </g>
</svg>
